/* XPM */
static char *float_xpm[] = {
"16 16 5 1",
" 	c None s None",
".	c black",
"o	c #808080",
"X	c white",
"O	c darkgreen",
"                ",
"  ........      ",
"  .XXXXXX..     ",
"  .XXXXXX.X.    ",
"  .XXXXXX....   ",
"  .XXXXXXXoo.o  ",
"  .XXOOOXXOX.o  ",
"  .XOXOXOOXX.o  ",
"  .XXXOXOXXX.o  ",
"  .XXXOXOXXX.o  ",
"  .XXXOXOXXX.o  ",
"  .XXXXXXXXX.o  ",
"  .XXXXXXXXX.o  ",
"  ...........o  ",
"   ooooooooooo  ",
"                "};
