/* XPM */
static char *string_xpm[] = {
"16 16 5 1",
" 	c None s None",
".	c black",
"o	c #808080",
"X	c white",
"O	c red",
"                ",
"  ........      ",
"  .XXXXXX..     ",
"  .XXXXXX.X.    ",
"  .XXXXXX....   ",
"  .XXXXXXXoo.o  ",
"  .XXXOOXXXX.o  ",
"  .XXXXXOXXX.o  ",
"  .XXXOOOXXX.o  ",
"  .XXOXXOXXX.o  ",
"  .XXXOOXOXX.o  ",
"  .XXXXXXXXX.o  ",
"  .XXXXXXXXX.o  ",
"  ...........o  ",
"   ooooooooooo  ",
"                "};
