/* XPM */
static char *data_xpm[] = {
"16 16 5 1",
" 	c None s None",
".	c black",
"o	c #808080",
"X	c white",
"O	c blue",
"                ",
"  ........      ",
"  .XXXXXX..     ",
"  .XXOXXX.X.    ",
"  .XOXOXX....   ",
"  .XOXOXXOoo.o  ",
"  .XXOXXXOXX.o  ",
"  .XXXXXXXXX.o  ",
"  .XXOXXXOXX.o  ",
"  .XOOXXOXOX.o  ",
"  .XXOXXOXOX.o  ",
"  .XXOXXXOXX.o  ",
"  .XXXXXXXXX.o  ",
"  ...........o  ",
"   ooooooooooo  ",
"                "};
