/* XPM */
static char *num_xpm[] = {
"16 16 5 1",
" 	c None s None",
".	c black",
"o	c #808080",
"X	c white",
"O	c blue",
"                ",
"  ........      ",
"  .XXXXXX..     ",
"  .XXXXXX.X.    ",
"  .XXXXXX....   ",
"  .XXXXOXXoo.o  ",
"  .XXXOOXXXX.o  ",
"  .XXXXOXXXX.o  ",
"  .XXXXOXXXX.o  ",
"  .XXXXOXXXX.o  ",
"  .XXXOOOXXX.o  ",
"  .XXXXXXXXX.o  ",
"  .XXXXXXXXX.o  ",
"  ...........o  ",
"   ooooooooooo  ",
"                "};
